<svg id="Layer_1" enable-background="new 0 0 511.967 511.967" height="512" viewBox="0 0 511.967 511.967" width="512" xmlns="http://www.w3.org/2000/svg"><g><g><path d="m17.953 265.389c0-120.931 97.63-218.964 218.062-218.964s218.062 98.034 218.062 218.964c0 120.931-97.63 218.965-218.062 218.965-25.277 0-49.542-4.333-72.118-12.276l-66.525 32.409v-70.082c-48.5-40.161-79.419-100.963-79.419-169.016z" fill="#59a1a5"/><g><path d="m236.015 46.425c-6.744 0-13.412.324-20 .926 111.056 10.142 198.062 103.88 198.062 218.039 0 114.167-87.019 207.911-198.087 218.041 6.595.605 13.272.924 20.025.924 120.432 0 218.062-98.034 218.062-218.965 0-120.932-97.63-218.965-218.062-218.965z" fill="#419296"/></g><g><path d="m461.354 415.533-145.419-145.399c-17.464 17.461-27.328 39.641-29.602 62.434-23.915-9.117-47.111-23.582-69.876-46.343-22.045-22.041-36.447-45.451-45.715-69.935 22.573-2.393 44.506-12.231 61.807-29.53l-145.42-145.399c-40.106 40.1-73.064 165.762 67.688 306.494 141.251 141.232 266.397 107.811 306.537 67.678z" fill="#fff7e8"/><g fill="#fff1d6"><path d="m192.549 186.76c-17.301 17.299-39.234 27.137-61.807 29.53 9.268 24.484 23.67 47.894 45.715 69.935 18.738 18.735 41.288 35.561 66.294 44.935 12.414 4.654 31.025 8.014 43.582 1.408 0 0-28.388-13.082-36.341-18.709-11.302-7.482-22.47-16.571-33.535-27.635-22.044-22.041-36.447-45.451-45.715-69.935 22.573-2.393 44.506-12.231 61.807-29.53l-145.42-145.398c-5.936 5.935-11.715 13.745-16.797 23.199z"/><path d="m315.934 270.134c-6.939 6.938-12.657 14.629-17.198 22.799l122.617 122.6c-15.414 15.412-43.365 29.832-79.948 33.754 56.208 5.735 99.312-13.121 119.948-33.754z"/></g><g fill="#ffd88f"><path d="m229.653 183.865-139.624-139.605c-8.414-8.413-8.414-22.053 0-30.466 8.412-8.411 22.05-8.411 30.462 0l139.625 139.605c8.414 8.413 8.414 22.053 0 30.465-8.413 8.412-22.05 8.412-30.463.001z"/><path d="m457.413 411.592-139.625-139.605c-8.414-8.413-8.414-22.053 0-30.466 8.412-8.411 22.05-8.411 30.462 0l139.625 139.605c8.414 8.413 8.414 22.053 0 30.465-8.412 8.412-22.05 8.412-30.462.001z"/></g></g></g><path d="m493.178 375.823-42.132-42.126c.148-.314.286-.634.392-.975 6.729-21.722 10.14-44.376 10.14-67.333 0-60.485-23.459-117.351-66.055-160.124-42.604-42.781-99.252-66.341-159.508-66.341-23.58 0-46.764 3.629-68.99 10.792l-41.231-41.225c-11.322-11.321-29.746-11.321-41.068 0-8.029 8.028-10.648 20.809-6.434 31.336-17.745 20.032-34.209 56.48-33.238 104.996-22.638 36.07-34.6 77.707-34.6 120.565 0 66.676 28.897 129.341 79.419 172.508v66.59c0 5.45 5.9 9.121 10.785 6.743l63.736-31.05c14.812 4.976 30.175 8.402 45.707 10.191 9.63 1.105 11.353-13.792 1.717-14.901-15.47-1.782-30.755-5.303-45.431-10.466-1.891-.664-3.972-.544-5.773.333l-55.741 27.155v-58.085c0-2.234-.996-4.352-2.717-5.777-48.745-40.364-76.702-99.862-76.702-163.239 0-32.794 7.495-64.817 21.824-93.84 11.147 76.363 61.037 140.416 102.238 181.61 40.878 40.872 104.12 90.249 179.316 102.055-22.71 11.189-47.432 18.274-72.613 20.68-9.471.905-7.789 15.823 1.426 14.932 34.45-3.291 68.1-14.74 97.474-33.106 37.74 1.242 79.542-7.913 108.31-33.831 2.985.994 6.1 1.498 9.217 1.498 7.435 0 14.873-2.831 20.533-8.491 11.102-11.102 11.127-29.948-.001-41.074zm-257.163-321.898c116.104 0 210.562 94.862 210.562 211.464 0 19.135-2.542 38.037-7.549 56.293l-85.476-85.464c-11.322-11.322-29.745-11.32-41.067 0-8.423 8.421-10.836 22.011-5.803 32.802-13.436 14.926-22.583 33.301-26.375 52.959-21.117-9.362-40.346-22.857-58.549-41.057-17.742-17.74-31.05-37.002-40.49-58.652 19.643-3.897 37.997-13.149 52.854-26.668 10.494 4.17 23.289 1.574 31.296-6.432 11.103-11.101 11.129-29.947 0-41.073l-86.353-86.341c18.453-5.196 37.555-7.831 56.95-7.831zm110.581 388.304c-77.911-6.183-144.409-57.618-186.476-99.678-41.928-41.922-93.224-108.269-99.492-186.281-2.5-31.104 3.24-75.721 26.753-104.052l17.192 17.19c6.856 6.858 17.464-3.751 10.605-10.607l-19.847-19.845c-5.417-5.416-5.417-14.442 0-19.858 5.475-5.475 14.383-5.474 19.857 0l139.624 139.605c5.418 5.417 5.417 14.44 0 19.858-5.475 5.475-14.382 5.473-19.856 0l-91.674-91.661c-6.86-6.855-17.463 3.752-10.605 10.607l89.054 89.042c-14.639 12.556-32.391 20.227-51.78 22.282-5.388 1.332-7.463 4.703-6.225 10.113 10.312 27.243 25.825 50.985 47.427 72.584 22.195 22.192 45.913 37.909 72.507 48.047 4.257 1.623 9.647-1.368 10.135-6.263 1.927-19.311 9.803-37.634 22.359-52.354l134.344 134.325c-28.385 23.594-72.899 29.406-103.902 26.946zm135.976-35.941c-5.473 5.474-14.38 5.475-19.856 0l-139.625-139.605c-5.417-5.416-5.417-14.442 0-19.858 5.411-5.41 14.446-5.41 19.856 0l139.625 139.605c5.418 5.418 5.418 14.441 0 19.858z"/></g></svg>