<svg id="Layer_1" enable-background="new 0 0 511.806 511.806" height="512" viewBox="0 0 511.806 511.806" width="512" xmlns="http://www.w3.org/2000/svg"><g><g><g><path d="m232.719 266.488-211.97 95.692c-17.796 8.034-17.796 33.411 0 41.444l211.97 95.692c14.745 6.657 31.622 6.657 46.367 0l211.97-95.692c17.796-8.034 17.796-33.411 0-41.444l-211.97-95.692c-14.745-6.656-31.622-6.656-46.367 0z" fill="#59a1a5"/><path d="m491.056 362.18-211.97-95.692c-13.695-6.183-29.227-6.614-43.184-1.312 1.07.407 2.134.838 3.184 1.312l211.97 95.692c17.796 8.034 17.796 33.411 0 41.445l-211.97 95.692c-1.05.474-2.113.905-3.184 1.312 13.957 5.302 29.488 4.871 43.184-1.312l211.97-95.692c17.796-8.034 17.796-33.411 0-41.445z" fill="#419296"/><path d="m232.719 158.577-211.97 95.692c-17.796 8.034-17.796 33.411 0 41.445l211.97 95.692c14.745 6.657 31.622 6.657 46.367 0l211.97-95.692c17.796-8.034 17.796-33.411 0-41.445l-211.97-95.692c-14.745-6.656-31.622-6.656-46.367 0z" fill="#ff7893"/><path d="m491.056 254.269-211.97-95.692c-13.695-6.183-29.227-6.614-43.184-1.312 1.07.406 2.134.837 3.184 1.312l211.97 95.692c17.796 8.034 17.796 33.411 0 41.444l-211.97 95.692c-1.05.474-2.113.905-3.184 1.312 13.957 5.302 29.488 4.871 43.184-1.312l211.97-95.692c17.796-8.033 17.796-33.41 0-41.444z" fill="#ff5e7f"/></g><path d="m238.021 335.581c-71.145 0-113.309-59.387-113.326-114.363-.044-143.269 151.882-143.821 151.882-143.821l-.062-57.202c-.013-11.688 14.26-17.318 22.17-8.747l81.598 88.415c9.089 9.848 9.105 25.022.038 34.89l-81.406 88.594c-7.779 8.466-22.177 2.506-22.189-8.698-.004-3.813-.608-60.065-.608-60.065s-74.744 3.134-85.526 73.201c-11.16 72.519 47.429 107.796 47.429 107.796z" fill="#fff7e8"/><g fill="#fff1d6"><path d="m190.591 227.786c5.287-34.356 25.951-52.614 45.642-62.306 0 0 19.669-9.795 39.884-10.895 0 0-10.589-1-18.339-1-11.625 0-21.66 1-21.66 1s-74.744 3.134-85.526 73.201c-6.793 44.142 12.257 74.484 28.206 91.472 16.451 10.169 36.335 16.323 59.224 16.323-.001 0-58.59-35.277-47.431-107.795z"/><path d="m380.283 99.864-81.598-88.415c-7.911-8.572-22.183-2.941-22.17 8.747l.011 10.585 63.756 69.083c9.089 9.848 9.106 25.022.038 34.89l-63.688 69.311c.055 5.596.092 9.654.093 10.584.012 11.204 14.41 17.164 22.189 8.698l81.406-88.594c9.068-9.867 9.052-25.04-.037-34.889z"/></g></g><path d="m494.142 355.345-58.474-26.397 58.474-26.397c23.202-10.474 23.223-44.633 0-55.116l-146.432-66.107 38.133-41.5c11.618-12.644 11.596-32.432-.049-45.051l-81.597-88.414c-12.308-13.339-35.202-4.26-35.182 13.84l.054 50.034c-16.476 1.184-57.003 6.497-92.314 30.317-8.039 5.424.349 17.857 8.389 12.436 40.743-27.484 90.967-28.09 91.463-28.093 4.134-.017 7.475-3.374 7.471-7.508l-.062-57.202c-.006-4.8 5.888-7.197 9.158-3.651l81.598 88.415c6.392 6.926 6.404 17.788.027 24.729l-81.406 88.594c-3.091 3.364-9.77.845-9.775-3.633-.004-3.805.025-57.838 0-60.136-.512-4.677-3.116-7.148-7.813-7.413-.826.034-20.459.963-41.631 11.047-28.557 13.602-46.19 37.291-50.994 68.507-5.596 36.367 5.847 72.596 31.375 99.034-25.845-5.506-43.393-19.5-54.28-31.666-17.836-19.931-28.071-46.465-28.079-72.798-.01-33.255 8.59-61.146 25.562-82.902 5.965-7.645-5.862-16.872-11.827-9.227-15.663 20.077-24.97 44.572-27.799 72.991l-100.468 45.355c-23.202 10.474-23.223 44.633 0 55.116l58.474 26.397-58.474 26.397c-23.203 10.475-23.222 44.632 0 55.116l211.97 95.692c8.347 3.768 17.309 5.652 26.27 5.652s17.922-1.885 26.27-5.652l87.739-39.609c8.839-3.99 2.667-17.659-6.172-13.672l-87.741 39.611c-12.771 5.768-27.423 5.768-40.195 0l-211.97-95.692c-11.569-5.224-11.688-22.497 0-27.772l68.835-31.075c.529-.239 1.012-.536 1.455-.873l135.507 61.174c8.347 3.768 17.309 5.652 26.27 5.652s17.922-1.885 26.27-5.652l135.339-61.098c.254.153.516.297.793.422l69.666 31.45c11.572 5.223 11.686 22.496 0 27.772l-81.5 36.793c-8.689 3.922-2.399 17.542 6.172 13.672l81.5-36.793c23.201-10.475 23.223-44.633 0-55.116zm-218.142 29.225c-12.771 5.768-27.423 5.767-40.195 0l-211.97-95.692c-11.571-5.222-11.687-22.498 0-27.772l93.397-42.164c-.336 31.095 11.097 61.869 31.864 85.076 22.543 25.19 54.125 39.063 88.925 39.063 7.43 0 10.236-10.092 3.869-13.925-.543-.327-54.161-33.455-43.886-100.229 4.045-26.287 18.235-45.476 42.177-57.034 10.96-5.291 21.633-7.757 28.526-8.888.168 15.809.516 48.809.519 51.652.02 17.845 23.111 26.933 35.211 13.765l32.584-35.461 150.949 68.145c11.571 5.222 11.687 22.498 0 27.772z"/></g></svg>