<svg id="Layer_1" enable-background="new 0 0 512 512" height="512" viewBox="0 0 512 512" width="512" xmlns="http://www.w3.org/2000/svg"><g><g><g><path d="m40.763 131.733c-21.151 36.556-33.263 78.996-33.263 124.267 0 137.243 111.257 248.5 248.5 248.5v-248.5z" fill="#ff7893"/><path d="m471.237 131.733c-42.97-74.265-123.266-124.233-215.237-124.233s-172.267 49.968-215.237 124.233l215.237 124.267z" fill="#ff9e5e"/><g><path d="m431.237 131.733 9.182 17.793 30.818-17.793c-42.97-74.265-123.266-124.233-215.237-124.233-6.733 0-13.402.275-20 .801 83.526 6.653 155.413 54.604 195.237 123.432z" fill="#fa8d46"/></g><path d="m504.5 256c0-45.271-12.112-87.711-33.263-124.267l-215.237 124.267v248.5c137.243 0 248.5-111.257 248.5-248.5z" fill="#b5e8e0"/><path d="m471.237 131.733-30.684 17.716c15.352 32.291 23.947 68.416 23.947 106.551 0 123.624-90.278 226.146-208.5 245.28v3.22c137.243 0 248.5-111.257 248.5-248.5 0-45.271-12.112-87.711-33.263-124.267z" fill="#97dbd1"/></g><circle cx="256" cy="256" fill="#fff7e8" r="150.322"/><path d="m333.964 256c0-5.395-.548-10.662-1.592-15.749l19.422-20.919-16.141-27.957-27.851 6.365c-7.833-6.969-17.078-12.383-27.255-15.756l-8.405-27.277h-32.282l-8.405 27.277c-10.177 3.373-19.423 8.787-27.255 15.756l-27.851-6.365-16.141 27.957 19.422 20.919c-1.044 5.087-1.592 10.354-1.592 15.749s.548 10.663 1.592 15.749l-19.422 20.919 16.141 27.957 27.851-6.365c7.833 6.969 17.078 12.383 27.255 15.757l8.405 27.277h32.282l8.405-27.277c10.177-3.373 19.423-8.787 27.255-15.757l27.851 6.365 16.141-27.957-19.422-20.919c1.043-5.086 1.592-10.354 1.592-15.749zm-77.964 37.001c-20.435 0-37.001-16.566-37.001-37.001s16.566-37.001 37.001-37.001 37.001 16.566 37.001 37.001-16.566 37.001-37.001 37.001z" fill="#59a1a5"/></g><g><path d="m333.964 256c0-5.395-.549-10.662-1.592-15.749l19.422-20.919-16.141-27.957-27.851 6.365c-7.833-6.969-17.078-12.383-27.255-15.756l-8.405-27.277h-32.282l-8.195 26.594c35.074 6.636 61.606 37.425 61.606 74.429 0 37.059-26.612 67.884-61.764 74.457l8.353 27.107h32.282l8.405-27.277c10.177-3.373 19.423-8.787 27.255-15.756l27.851 6.365 16.141-27.957-19.422-20.919c1.043-5.088 1.592-10.355 1.592-15.75z" fill="#419296"/></g><g><path d="m477.729 127.977c-22.107-38.208-53.895-70.254-91.926-92.671-39.185-23.098-84.071-35.306-129.803-35.306-47.938 0-94.681 13.334-135.174 38.562-8.23 5.128-.299 17.86 7.932 12.731 38.11-23.743 82.11-36.293 127.242-36.293 43.056 0 85.307 11.49 122.186 33.228 33.654 19.837 62.115 47.68 82.698 80.822l-72.151 41.657c-28.115-43.6-77.108-72.529-132.733-72.529s-104.618 28.929-132.733 72.529l-72.152-41.657c12.041-19.399 26.747-36.963 43.793-52.295 7.21-6.485-2.822-17.639-10.031-11.152-20.083 18.063-37.109 39.049-50.606 62.375-22.42 38.748-34.271 83.018-34.271 128.022 0 68.38 26.629 132.667 74.98 181.019 48.353 48.353 112.64 74.981 181.02 74.981s132.667-26.628 181.02-74.981c48.351-48.352 74.98-112.639 74.98-181.019 0-45.004-11.851-89.274-34.271-128.023zm-221.729-14.799c78.752 0 142.822 64.07 142.822 142.822 0 78.75-64.066 142.818-142.815 142.822-.003 0-.005 0-.008 0s-.005 0-.008 0c-78.748-.004-142.813-64.072-142.813-142.822 0-78.752 64.07-142.822 142.822-142.822zm-241 142.822c0-39.856 9.87-79.095 28.604-113.966l72.143 41.652c-11.222 21.677-17.57 46.267-17.57 72.314 0 84.509 66.768 153.711 150.322 157.64v83.246c-61.562-1.87-119.167-26.727-162.913-70.474-45.518-45.518-70.586-106.038-70.586-170.412zm411.413 170.413c-43.746 43.747-101.351 68.604-162.913 70.474v-83.247c83.554-3.929 150.322-73.131 150.322-157.64 0-26.047-6.348-50.638-17.57-72.314l72.143-41.652c18.735 34.871 28.605 74.11 28.605 113.966 0 64.374-25.068 124.894-70.587 170.413z"/><path d="m256 300.501c3.25 0 6.524-.363 9.733-1.08 9.465-2.115 6.193-16.753-3.27-14.64-18.057 4.034-35.965-10.282-35.965-28.782 0-16.267 13.234-29.501 29.501-29.501 19.052 0 33.481 18.898 28.452 37.3-2.557 9.353 11.912 13.31 14.469 3.955 7.606-27.819-14.06-56.255-42.921-56.255-24.538 0-44.501 19.963-44.501 44.501s19.964 44.502 44.502 44.502z"/><path d="m171.582 242.607c-1.393 8.857-1.393 17.929 0 26.786l-16.872 18.172c-2.239 2.412-2.645 6.002-.999 8.853l16.141 27.957c1.646 2.851 4.961 4.295 8.166 3.562l24.188-5.528c7.012 5.695 14.783 10.189 23.186 13.406l7.299 23.688c.969 3.146 3.876 5.292 7.167 5.292h32.282c3.292 0 6.198-2.146 7.167-5.292l7.299-23.688c8.403-3.217 16.174-7.71 23.186-13.406l24.188 5.528c3.207.733 6.52-.711 8.166-3.562l16.141-27.957c1.646-2.851 1.241-6.441-.999-8.853l-16.872-18.172c1.394-8.857 1.394-17.929 0-26.786l16.872-18.172c2.239-2.412 2.645-6.002.999-8.853l-16.141-27.957c-1.646-2.851-4.96-4.296-8.166-3.562l-24.188 5.528c-7.012-5.695-14.783-10.188-23.186-13.406l-7.299-23.688c-.969-3.146-3.876-5.292-7.167-5.292h-32.282c-3.292 0-6.198 2.146-7.167 5.292l-7.299 23.688c-8.403 3.217-16.174 7.711-23.186 13.406l-24.188-5.528c-3.208-.735-6.521.71-8.166 3.562l-16.141 27.957c-1.646 2.851-1.241 6.441.999 8.853zm8.492-42.687 22.454 5.132c2.363.541 4.845-.096 6.656-1.708 7.222-6.426 15.509-11.217 24.63-14.24 2.302-.763 4.093-2.593 4.808-4.911l6.774-21.986h21.208l6.774 21.986c.714 2.318 2.505 4.147 4.808 4.911 9.121 3.023 17.408 7.814 24.63 14.24 1.812 1.613 4.293 2.249 6.656 1.708l22.454-5.132 10.604 18.367-15.654 16.861c-1.648 1.775-2.337 4.237-1.851 6.61 1.921 9.363 1.921 19.121 0 28.484-.487 2.373.203 4.835 1.851 6.61l15.654 16.861-10.604 18.367-22.454-5.132c-2.364-.539-4.844.097-6.657 1.708-7.222 6.426-15.508 11.217-24.629 14.24-2.303.763-4.094 2.593-4.808 4.911l-6.774 21.986h-21.208l-6.774-21.986c-.714-2.318-2.505-4.147-4.808-4.911-9.121-3.023-17.407-7.814-24.629-14.24-1.812-1.612-4.294-2.248-6.657-1.708l-22.454 5.132-10.604-18.367 15.654-16.861c1.648-1.775 2.337-4.237 1.851-6.61-1.921-9.362-1.921-19.122 0-28.484.487-2.373-.203-4.834-1.851-6.61l-15.654-16.861z"/></g></g></svg>