<svg id="Layer_1" enable-background="new 0 0 511.309 511.309" height="512" viewBox="0 0 511.309 511.309" width="512" xmlns="http://www.w3.org/2000/svg"><g><g><g><g><path d="m478.895 348.319h-301.667c-13.76 0-24.914-11.154-24.914-24.914v-290.636c0-13.76 11.154-24.914 24.914-24.914h301.667c13.76 0 24.914 11.154 24.914 24.914v290.636c0 13.76-11.155 24.914-24.914 24.914z" fill="#b5e8e0"/></g><path d="m478.895 7.855h-40c13.76 0 24.914 11.154 24.914 24.914v290.636c0 13.76-11.154 24.914-24.914 24.914h40c13.76 0 24.914-11.154 24.914-24.914v-290.636c0-13.759-11.155-24.914-24.914-24.914z" fill="#97dbd1"/><path d="m454.883 348.319c0-58.347-39.415-107.458-93.061-122.243 27.021-12.697 45.736-40.145 45.736-71.976 0-43.905-35.592-79.497-79.497-79.497s-79.497 35.592-79.497 79.497c0 31.831 18.715 59.279 45.736 71.976-53.646 14.785-93.061 63.896-93.061 122.243z" fill="#59a1a5"/></g><g><path d="m78.411 503.453h183.073c15.224 0 28.845-9.46 34.161-23.725l41.702-111.892c8.878-23.822-8.738-49.188-34.161-49.188h-96.737l13.7-80.976c3.559-25.626-31.632-38.95-45.841-17.128l-95.897 129.629z" fill="#fff7e8"/><g fill="#fff1d6"><path d="m303.186 318.648h-40c25.423 0 43.04 25.366 34.161 49.188l-41.702 111.892c-5.317 14.265-18.937 23.725-34.161 23.725h40c15.224 0 28.845-9.46 34.161-23.725l41.702-111.892c8.878-23.822-8.738-49.188-34.161-49.188z"/><path d="m180.149 237.672-13.7 80.976h40l13.7-80.976c3.491-25.131-30.285-38.427-44.992-18.348 3.881 4.772 6.004 11.062 4.992 18.348z"/></g><path d="m28.149 503.453h50.262v-153.28h-50.262c-11.404 0-20.649 9.245-20.649 20.649v111.983c0 11.404 9.245 20.648 20.649 20.648z" fill="#59a1a5"/></g></g><path d="m503.809 74.164c4.143 0 7.5-3.358 7.5-7.5v-33.895c0-17.873-14.541-32.414-32.414-32.414h-301.667c-17.873 0-32.414 14.541-32.414 32.414v215.033l-70.184 94.87h-46.482c-15.521.001-28.148 12.628-28.148 28.149v111.983c0 15.521 12.627 28.149 28.148 28.149h233.336c18.26 0 34.812-11.496 41.188-28.606l41.701-111.892c1.77-4.749 2.663-9.699 2.743-14.636h131.778c17.873 0 32.414-14.541 32.414-32.414v-215.741c0-9.697-15-9.697-15 0v215.741c0 9.602-7.812 17.414-17.414 17.414h-16.746c-2.894-51.584-35.403-96.984-82.65-116.583 22.008-16.213 35.559-42.263 35.559-70.136 0-47.97-39.026-86.997-86.996-86.997-47.971 0-86.997 39.026-86.997 86.997 0 27.877 13.555 53.931 35.569 70.143-20.924 8.702-39.305 22.613-53.401 40.158l4.311-25.478c.012-.073.023-.146.034-.219 2.096-15.094-6.387-28.932-21.111-34.433-14.604-5.455-29.968-.641-38.313 11.983l-8.339 11.273v-194.758c0-9.602 7.812-17.414 17.414-17.414h301.667c9.603 0 17.414 7.812 17.414 17.414v33.895c0 4.142 3.357 7.5 7.5 7.5zm-286.85 230.555c13.676-34.794 43.333-61.49 79.334-71.412 6.577-1.813 7.372-11.117 1.197-14.019-25.165-11.825-41.426-37.412-41.426-65.188 0-39.699 32.298-71.997 71.997-71.997s71.996 32.297 71.996 71.997c0 27.775-16.261 53.363-41.425 65.188-6.175 2.902-5.38 12.206 1.197 14.019 49.125 13.539 84.106 57.132 87.29 107.512h-102.384c-6.029-17.548-22.972-29.671-41.549-29.671h-87.861c.131-2.364.803-4.315 1.634-6.429zm-36.622-79.714c.089-.12.174-.243.256-.368 5.419-8.325 14.496-8.605 20.624-6.315 6.14 2.294 12.824 8.438 11.517 18.217l-13.68 80.857c-.243 5.205 2.222 8.122 7.395 8.751h96.737c19.892 0 34.081 20.429 27.134 39.069l-41.701 111.892c-4.201 11.271-15.105 18.844-27.134 18.844h-175.574v-22.32c0-9.697-15-9.697-15 0v22.32h-42.763c-7.25 0-13.148-5.898-13.148-13.149v-111.982c0-7.25 5.898-13.148 13.148-13.148h42.763v76.007c0 9.697 15 9.697 15 0v-81.035z"/></g></svg>