<svg id="Layer_1" enable-background="new 0 0 511.803 511.803" height="512" viewBox="0 0 511.803 511.803" width="512" xmlns="http://www.w3.org/2000/svg"><g><g><g><g><g><path d="m359.743 7.5h-300.573c-10.84 0-19.628 8.771-19.628 19.59v401.578c0 10.819 8.788 19.589 19.628 19.589h210.46l109.741-109.523v-311.644c0-10.819-8.788-19.59-19.628-19.59z" fill="#fff7e8"/><path d="m359.743 7.5h-40c10.841 0 19.628 8.771 19.628 19.589v340.911l40-29.266v-311.645c0-10.818-8.788-19.589-19.628-19.589z" fill="#fff1d6"/><path d="m289.258 338.734h90.113l-109.741 109.523v-89.933c0-10.819 8.788-19.59 19.628-19.59z" fill="#ffd88f"/></g></g><g><path d="m77.072 47.439h262.25v90.172h-262.25z" fill="#ff7893"/></g></g><g><path d="m318.687 486.49-.01-.004c-15.731-5.47-24.048-22.658-18.574-38.388l88.193-254.6 56.967 19.806-88.198 254.617c-5.473 15.724-22.653 24.036-38.378 18.569z" fill="#59a1a5"/><path d="m388.296 193.498-4.3 12.412 21.266 7.394-88.198 254.617c-1.76 5.058-4.737 9.343-8.482 12.656 2.863 2.539 6.256 4.575 10.095 5.91l.01.004c15.725 5.467 32.905-2.845 38.377-18.569l88.198-254.617z" fill="#419296"/><path d="m416.06 344.654c-7.931-2.758-12.125-11.42-9.366-19.348l30.994-89.062-56.986-19.813c-7.931-2.758-12.125-11.42-9.366-19.348s11.426-12.119 19.357-9.362l71.347 24.806c7.931 2.758 12.125 11.42 9.366 19.348l-35.989 103.417c-2.759 7.928-11.426 12.12-19.357 9.362z" fill="#b5e8e0"/><path d="m435.791 203.402-33.191-11.54 19.74-56.723c3.188-9.161 13.198-14.004 22.36-10.819l.006.002c9.166 3.187 14.011 13.201 10.822 22.366z" fill="#59a1a5"/></g></g><g><path d="m346.822 137.611v-90.172c0-4.142-3.358-7.5-7.5-7.5h-262.25c-4.142 0-7.5 3.358-7.5 7.5v90.172c0 4.142 3.358 7.5 7.5 7.5h262.25c4.142 0 7.5-3.358 7.5-7.5zm-15-7.5h-247.25v-75.172h247.25z"/><path d="m319.693 186.825h-222.993c-4.142 0-7.5 3.358-7.5 7.5s3.358 7.5 7.5 7.5h222.993c4.142 0 7.5-3.358 7.5-7.5s-3.358-7.5-7.5-7.5z"/><path d="m319.693 234.812h-222.993c-4.142 0-7.5 3.358-7.5 7.5s3.358 7.5 7.5 7.5h222.993c4.142 0 7.5-3.358 7.5-7.5s-3.358-7.5-7.5-7.5z"/><path d="m327.193 290.298c0-4.142-3.358-7.5-7.5-7.5h-222.993c-4.142 0-7.5 3.358-7.5 7.5s3.358 7.5 7.5 7.5h222.993c4.142 0 7.5-3.358 7.5-7.5z"/><path d="m221.551 330.785h-124.851c-4.142 0-7.5 3.358-7.5 7.5s3.358 7.5 7.5 7.5h124.851c4.142 0 7.5-3.358 7.5-7.5s-3.358-7.5-7.5-7.5z"/><path d="m221.551 378.771h-124.851c-4.142 0-7.5 3.358-7.5 7.5s3.358 7.5 7.5 7.5h124.851c4.142 0 7.5-3.358 7.5-7.5s-3.358-7.5-7.5-7.5z"/><path d="m477.482 216.995c-2.642-5.458-7.251-9.56-12.979-11.551l-19.163-6.663 17.271-49.628c4.455-12.804-2.615-27.456-15.449-31.917-13.051-4.537-27.365 2.387-31.906 15.438l-17.275 49.642c-3.368-1.347-7.609-2.723-11.109-2.903v-152.324c0-14.937-12.17-27.089-27.129-27.089h-300.573c-14.958 0-27.128 12.152-27.128 27.089v39.911c0 9.697 15 9.697 15 0v-39.911c0-6.666 5.441-12.089 12.128-12.089h300.572c6.688 0 12.129 5.423 12.129 12.089v156.997c-11.581 8.865-11.628 26.772-.278 35.76l-38.763 111.387h-43.573c-14.958 0-27.128 12.152-27.128 27.09v82.433h-202.959c-6.688 0-12.128-5.423-12.128-12.089v-321.334c0-9.697-15-9.697-15 0v321.334c0 14.937 12.17 27.089 27.128 27.089h210.46c1.964 0 3.908-.804 5.298-2.191l23.49-23.443-5.398 15.51c-5.796 16.654 1.136 35.79 16.351 44.769l-4.048 11.633c-3.101 8.911 10.961 14.141 14.167 4.93l4.052-11.645c17.504 2.372 34.799-8.245 40.607-24.934l6.527-18.758c3.187-9.159-10.98-14.087-14.167-4.93l-6.527 18.757c-4.098 11.777-17.004 18.034-28.785 13.966-11.488-4.206-18.09-17.134-14.009-28.858l78.154-224.579 42.798 14.88-28.528 81.977c0 .001-.001.002-.001.003l-29.976 86.136c-3.187 9.159 10.979 14.087 14.167 4.93l22.965-65.99c12.095 9.789 30.667 4.397 35.734-10.163l35.989-103.417c1.992-5.725 1.635-11.885-1.008-17.344zm-48.059-79.391c1.823-5.241 7.571-8.021 12.819-6.198 4.984 1.733 8.028 7.568 6.202 12.817l-17.272 49.632-19.022-6.614zm-152.293 220.72c0-6.667 5.441-12.09 12.128-12.09h38.352l-17.894 51.42-32.586 32.521zm187.192-128.913-35.989 103.417c-3.268 9.392-17.817 4.357-14.559-5.047l30.997-89.073c1.097-4.459-.443-7.642-4.621-9.549l-56.967-19.806c-9.184-3.402-4.208-17.765 5.045-14.547 23.783 8.269 47.565 16.537 71.348 24.806 4.29 1.956 5.872 5.222 4.746 9.799z"/></g></g></svg>