<svg id="Layer_1" enable-background="new 0 0 511.977 511.977" height="512" viewBox="0 0 511.977 511.977" width="512" xmlns="http://www.w3.org/2000/svg"><g><g><g><path d="m492.04 491.946c-16.739 16.739-43.878 16.739-60.617 0l-139.811-139.812c-16.739-16.739-16.739-43.878 0-60.617 16.739-16.739 43.878-16.739 60.617 0l139.811 139.812c16.739 16.739 16.739 43.878 0 60.617z" fill="#ff9e5e"/><path d="m492.04 431.329-139.812-139.812c-13.619-13.619-34.123-16.156-50.308-7.613 3.707 1.957 7.189 4.493 10.308 7.613l139.812 139.812c16.739 16.739 16.739 43.878 0 60.617-3.12 3.12-6.601 5.656-10.308 7.613 16.185 8.543 36.689 6.007 50.308-7.613 16.739-16.739 16.739-43.878 0-60.617z" fill="#fa8d46"/><path d="m301.066 393.579c-11.665-11.665-11.665-30.579 0-42.244l50.364-50.364c11.665-11.665 30.579-11.665 42.244 0 11.665 11.665 11.665 30.579 0 42.244l-50.364 50.364c-11.666 11.666-30.579 11.666-42.244 0z" fill="#ff7893"/><circle cx="202.482" cy="202.388" fill="#59a1a5" r="194.888"/><circle cx="202.482" cy="202.388" fill="#b5e8e0" r="144.888"/><path d="m202.482 57.5c-6.786 0-13.46.48-20 1.387 70.46 9.772 124.888 70.395 124.888 143.501s-54.428 133.728-124.888 143.501c6.54.907 13.214 1.387 20 1.387 79.891 0 144.888-64.997 144.888-144.888s-64.997-144.888-144.888-144.888z" fill="#97dbd1"/></g><g fill="#fff7e8"><circle cx="134.378" cy="202.388" r="20.755"/><circle cx="202.482" cy="202.388" r="20.755"/><circle cx="270.586" cy="202.388" r="20.755"/></g></g><g><path d="m497.343 426.026-43.73-43.73c-6.857-6.857-17.464 3.75-10.606 10.606l43.73 43.73c13.632 13.632 13.632 36.378 0 50.01-13.789 13.789-36.223 13.788-50.01 0l-87.937-87.937 50.01-50.01 15.654 15.653c6.857 6.857 17.464-3.75 10.606-10.606l-17.803-17.803c5.345-13.452 2.588-29.403-8.28-40.272-3.693-3.693-8.043-6.505-12.809-8.365 11.992-25.838 18.702-54.606 18.702-84.915 0-111.596-90.791-202.387-202.388-202.387-43.64 0-85.209 13.682-120.212 39.566-7.797 5.766 1.121 17.825 8.919 12.061 32.402-23.962 70.887-36.627 111.293-36.627 103.326 0 187.388 84.062 187.388 187.388s-84.062 187.388-187.388 187.388-187.388-84.062-187.388-187.388c0-46.375 17.078-90.884 48.088-125.328 6.489-7.207-4.66-17.243-11.147-10.036-33.494 37.203-51.941 85.276-51.941 135.364 0 111.597 90.791 202.388 202.388 202.388 30.31 0 59.079-6.71 84.917-18.703 1.861 4.767 4.672 9.119 8.363 12.81 7.286 7.285 16.855 10.928 26.425 10.928 4.707 0 9.412-.886 13.847-2.648l90.086 90.087c9.818 9.818 22.715 14.728 35.612 14.728 12.896 0 25.793-4.909 35.611-14.728 19.383-19.384 19.388-51.836 0-71.224zm-190.974-37.75c-2.571-2.571-4.436-5.67-5.508-9.077 32.849-18.35 60.083-45.585 78.433-78.434 3.407 1.071 6.504 2.937 9.076 5.509 8.722 8.723 8.722 22.915 0 31.638l-50.364 50.364c-8.722 8.722-22.915 8.723-31.637 0z"/><path d="m202.482 354.775c84.027 0 152.388-68.361 152.388-152.388s-68.361-152.387-152.388-152.387-152.388 68.361-152.388 152.388 68.361 152.387 152.388 152.387zm0-289.775c75.756 0 137.388 61.632 137.388 137.388s-61.632 137.388-137.388 137.388-137.388-61.632-137.388-137.388 61.632-137.388 137.388-137.388z"/><path d="m134.378 230.643c15.58 0 28.255-12.675 28.255-28.255s-12.675-28.255-28.255-28.255-28.255 12.675-28.255 28.255 12.675 28.255 28.255 28.255zm0-41.51c7.309 0 13.255 5.946 13.255 13.255s-5.946 13.255-13.255 13.255-13.255-5.946-13.255-13.255 5.946-13.255 13.255-13.255z"/><path d="m202.482 230.643c15.58 0 28.255-12.675 28.255-28.255s-12.675-28.255-28.255-28.255-28.255 12.675-28.255 28.255 12.675 28.255 28.255 28.255zm0-41.51c7.309 0 13.255 5.946 13.255 13.255s-5.946 13.255-13.255 13.255-13.255-5.946-13.255-13.255 5.946-13.255 13.255-13.255z"/><path d="m270.587 230.643c15.58 0 28.255-12.675 28.255-28.255s-12.675-28.255-28.255-28.255-28.255 12.675-28.255 28.255 12.674 28.255 28.255 28.255zm0-41.51c7.309 0 13.255 5.946 13.255 13.255s-5.946 13.255-13.255 13.255-13.255-5.946-13.255-13.255 5.945-13.255 13.255-13.255z"/></g></g></svg>